# xmcd CD database file
#
# Track frame offsets:
#	150
#	24807
#	53225
#	79414
#	101006
#	131514
#	155335
#	179853
#	208689
#	233207
#	258282
#
# Disc length: 3766 seconds
#
# Revision: 0
# Processed by: cddbd v1.5.2PL0 Copyright (c) Steve Scherf et al.
# Submitted via: jetAudio 7
#
DISCID=920eb40b
DTITLE=Liuxing - My Way
DYEAR=2001
DGENRE=Instrumental
TTITLE0=Still Clouds and a Solitary Crane
TTITLE1=Omnipresence
TTITLE2=A Solitary Flower in Love with Itself
TTITLE3=Be Open-Minded as a Valley
TTITLE4=One's Last Gasp
TTITLE5=Samsara
TTITLE6=Drifting Clouds and Flowing Water
TTITLE7=Impromptu I
TTITLE8=A Long, Long Way to go
TTITLE9=My Way
TTITLE10=Impromptu II
EXTD=YEAR: 2001
EXTT0=
EXTT1=
EXTT2=
EXTT3=
EXTT4=
EXTT5=
EXTT6=
EXTT7=
EXTT8=
EXTT9=
EXTT10=
PLAYORDER=
